<?xml version="1.0" encoding="UTF-8"?>
<svg version="1.1" viewBox="0 0 22 22" xmlns="http://www.w3.org/2000/svg">
<title>list(2)</title>
<desc>Created with Sketch.</desc>
<g fill="none" fill-rule="evenodd">
<g transform="translate(-1 -1)">
<g transform="translate(1 1)">
<path d="m21.633 0h-21.267c-0.2024 0-0.36667 0.1639-0.36667 0.36667v21.267c0 0.20277 0.16427 0.36667 0.36667 0.36667h21.267c0.2024 0 0.36667-0.1639 0.36667-0.36667v-21.267c0-0.20277-0.16427-0.36667-0.36667-0.36667z" fill="#fff"/>
<g transform="translate(2.75 6.4167)" fill="#1F496A">
<rect x="2.75" width="13.75" height="1.375" rx=".6875"/>
<rect x="2.75" y="4.125" width="13.75" height="1.375" rx=".6875"/>
<rect x="2.75" y="8.25" width="13.75" height="1.375" rx=".6875"/>
<rect width="1.375" height="1.375" rx=".6875"/>
<rect y="4.125" width="1.375" height="1.375" rx=".6875"/>
<rect y="8.25" width="1.375" height="1.375" rx=".6875"/>
</g>
</g>
</g>
</g>
</svg>
