<?xml version="1.0" encoding="UTF-8"?>
<svg version="1.1" viewBox="0 0 16 20" xmlns="http://www.w3.org/2000/svg">
<title>rubbish-bin</title>
<desc>Created with Sketch.</desc>
<g fill="none" fill-rule="evenodd">
<g transform="translate(-1055 -327)" fill="#6E7993" fill-rule="nonzero">
<g transform="translate(1055 327)">
<path d="m14.435 2.3527h-2.6678v-1.7336c0-0.34895-0.28147-0.61912-0.6304-0.61912-0.033858 0-0.056439 0.011303-0.067458 0.022581-0.011303-0.011277-0.033884-0.022581-0.045161-0.022581h-6.2701-0.044903-0.045161c-0.34893 0-0.6191 0.27017-0.6191 0.61912v1.7337h-2.6791c-0.7656 0-1.3621 0.59654-1.3621 1.3621v0.99063 1.2382h1.182v12.686c0 0.76563 0.58526 1.3509 1.3509 1.3509h10.728c0.7656 0 1.3621-0.58524 1.3621-1.3509v-12.686h1.1707v-1.2382-0.99063c0-0.7656-0.59677-1.3622-1.3621-1.3622zm-9.1519-1.1145h5.2346v1.1145h-5.2346v-1.1145zm8.0938 17.392c0 0.078994-0.033858 0.11259-0.11262 0.11259h-10.728c-0.078761 0-0.11262-0.033626-0.11262-0.11259v-12.687h10.953v12.687zm1.1707-13.925h-13.295v-0.99063c0-0.078787 0.033858-0.12392 0.11262-0.12392h13.069c0.078787 0 0.11265 0.045135 0.11265 0.12392v0.99063z"/>
<rect x="10.169" y="7.3959" width="1.2495" height="10.244"/>
<rect x="7.2867" y="7.3959" width="1.2495" height="10.244"/>
<rect x="4.4049" y="7.3959" width="1.2495" height="10.244"/>
</g>
</g>
</g>
</svg>
