<?xml version="1.0" encoding="UTF-8"?>
<svg width="24px" height="22px" viewBox="0 0 24 22" version="1.1" xmlns="http://www.w3.org/2000/svg" xmlns:xlink="http://www.w3.org/1999/xlink">
    <!-- Generator: Sketch 55.2 (78181) - https://sketchapp.com -->
    <title>spreadsheet-cell-row(1)</title>
    <desc>Created with Sketch.</desc>
    <g id="Symbols" stroke="none" stroke-width="1" fill="none" fill-rule="evenodd">
        <g id="Icons/24px/GoldenW" transform="translate(0.000000, -1.000000)" fill="#FFFFFF">
            <g id="spreadsheet-cell-row(1)" transform="translate(0.000000, 1.000000)">
                <path d="M23.1019597,0.0462281879 L0.896536913,0.0462281879 C0.401610738,0.0462281879 0,0.448697987 0,0.942765101 L0,20.586255 C0,20.8898255 0.152161074,21.1573691 0.384161074,21.3198389 L0.384161074,21.4611544 L0.705557047,21.4611544 C0.767087248,21.4746846 0.830765101,21.4826846 0.896536913,21.4826846 L23.1019597,21.4826846 C23.1671409,21.4826846 23.230604,21.4746846 23.2922953,21.4611544 L23.3363758,21.4611544 L23.3363758,21.4476779 C23.7166174,21.3436242 23.9987114,20.9987114 23.9987114,20.586255 L23.9987114,0.943033557 C23.9987114,0.448697987 23.5961342,0.0462281879 23.1019597,0.0462281879 Z M10.0132617,20.6926174 L4.31237584,20.6926174 L4.31237584,18.2587919 L10.0132617,18.2587919 L10.0132617,20.6926174 Z M10.0132617,17.4902013 L4.31237584,17.4902013 L4.31237584,14.9661745 L10.0132617,14.9661745 L10.0132617,17.4902013 Z M10.0132617,14.197906 L4.31237584,14.197906 L4.31237584,11.5331007 L10.0132617,11.5331007 L10.0132617,14.197906 Z M10.0132617,10.7646174 L4.31237584,10.7646174 L4.31237584,7.88209396 L10.0132617,7.88209396 L10.0132617,10.7646174 Z M10.0132617,7.11355705 L4.31237584,7.11355705 L4.31237584,4.29514094 L10.0132617,4.29514094 L10.0132617,7.11355705 Z M10.0132617,3.52644295 L4.31237584,3.52644295 L4.31237584,0.814496644 L10.0132617,0.814496644 L10.0132617,3.52644295 Z M16.5473826,20.6926174 L10.7818523,20.6926174 L10.7818523,18.2587919 L16.5473826,18.2587919 L16.5473826,20.6926174 Z M16.5473826,17.4902013 L10.7818523,17.4902013 L10.7818523,14.9661745 L16.5473826,14.9661745 L16.5473826,17.4902013 Z M16.5473826,14.197906 L10.7818523,14.197906 L10.7818523,11.5331007 L16.5473826,11.5331007 L16.5473826,14.197906 Z M16.5473826,10.7646174 L10.7818523,10.7646174 L10.7818523,7.88209396 L16.5473826,7.88209396 L16.5473826,10.7646174 Z M16.5473826,7.11355705 L10.7818523,7.11355705 L10.7818523,4.29514094 L16.5473826,4.29514094 L16.5473826,7.11355705 Z M16.5473826,3.52644295 L10.7818523,3.52644295 L10.7818523,0.814496644 L16.5473826,0.814496644 L16.5473826,3.52644295 Z M23.2300671,20.586255 C23.2300671,20.6316242 23.2042953,20.6700134 23.1683758,20.6925638 L17.3160268,20.6925638 L17.3160268,18.2587383 L23.2300671,18.2587383 L23.2300671,20.586255 Z M23.2300671,17.4902013 L17.3160268,17.4902013 L17.3160268,14.9661745 L23.2300671,14.9661745 L23.2300671,17.4902013 Z M23.2300671,14.197906 L17.3160268,14.197906 L17.3160268,11.5331007 L23.2300671,11.5331007 L23.2300671,14.197906 Z M23.2300671,10.7646174 L17.3160268,10.7646174 L17.3160268,7.88209396 L23.2300671,7.88209396 L23.2300671,10.7646174 Z M23.2300671,7.11355705 L17.3160268,7.11355705 L17.3160268,4.29514094 L23.2300671,4.29514094 L23.2300671,7.11355705 Z M23.2301208,3.52644295 L17.3160268,3.52644295 L17.3160268,0.814496644 L23.1020134,0.814496644 C23.1724564,0.814496644 23.2301208,0.872107383 23.2301208,0.942765101 L23.2301208,3.52644295 L23.2301208,3.52644295 Z M9.4418255,13.5973691 L4.82888591,13.5973691 L4.82888591,11.9930201 L9.44177181,11.9930201 L9.44177181,13.5973691 L9.4418255,13.5973691 Z M9.4129396,17.204349 L4.8,17.204349 L4.8,15.6 L9.41288591,15.6 L9.41288591,17.204349 L9.4129396,17.204349 Z M9.4129396,10.004349 L4.8,10.004349 L4.8,8.4 L9.41288591,8.4 L9.41288591,10.004349 L9.4129396,10.004349 Z M9.4129396,6.40434899 L4.8,6.40434899 L4.8,4.8 L9.41288591,4.8 L9.41288591,6.40434899 L9.4129396,6.40434899 Z M9.4129396,2.80434899 L4.8,2.80434899 L4.8,1.2 L9.41288591,1.2 L9.41288591,2.80434899 L9.4129396,2.80434899 Z M15.9603221,13.6578792 L11.3474362,13.6578792 L11.3474362,12.0534228 L15.9603221,12.0534228 L15.9603221,13.6578792 Z M15.9314362,17.2648591 L11.3185503,17.2648591 L11.3185503,15.6604027 L15.9314362,15.6604027 L15.9314362,17.2648591 Z M15.9314362,10.0648591 L11.3185503,10.0648591 L11.3185503,8.46040268 L15.9314362,8.46040268 L15.9314362,10.0648591 Z M15.9314362,6.46485906 L11.3185503,6.46485906 L11.3185503,4.86040268 L15.9314362,4.86040268 L15.9314362,6.46485906 Z M15.9314362,2.86485906 L11.3185503,2.86485906 L11.3185503,1.26040268 L15.9314362,1.26040268 L15.9314362,2.86485906 Z M22.6395168,13.622604 L18.0266846,13.622604 L18.0266846,12.0181477 L22.6395168,12.0181477 L22.6395168,13.622604 Z M22.6106309,17.2295839 L17.9977987,17.2295839 L17.9977987,15.6251275 L22.6106309,15.6251275 L22.6106309,17.2295839 Z M22.6106309,10.0295839 L17.9977987,10.0295839 L17.9977987,8.42512752 L22.6106309,8.42512752 L22.6106309,10.0295839 Z M22.6106309,6.42958389 L17.9977987,6.42958389 L17.9977987,4.82512752 L22.6106309,4.82512752 L22.6106309,6.42958389 Z M22.6106309,2.82958389 L17.9977987,2.82958389 L17.9977987,1.22512752 L22.6106309,1.22512752 L22.6106309,2.82958389 Z" id="Shape"></path>
            </g>
        </g>
    </g>
</svg>