<?xml version="1.0" encoding="UTF-8"?>
<svg width="22px" height="24px" viewBox="0 0 22 24" version="1.1" xmlns="http://www.w3.org/2000/svg" xmlns:xlink="http://www.w3.org/1999/xlink">
    <!-- Generator: Sketch 55.2 (78181) - https://sketchapp.com -->
    <title>spreadsheet</title>
    <desc>Created with Sketch.</desc>
    <g id="Symbols" stroke="none" stroke-width="1" fill="none" fill-rule="evenodd">
        <g id="Icons/24px/RulesW" transform="translate(-1.000000, 0.000000)">
            <g id="spreadsheet" transform="translate(1.000000, 0.000000)">
                <path d="M21.3627129,0 L0.023391991,0 L0.023391991,23.9533988 L12.5205403,23.9533988 C13.2944863,23.9533988 13.996246,23.6385206 14.5044736,23.1302931 C14.5053873,23.1312068 20.540521,17.0960731 20.540521,17.0960731 C21.0478348,16.5869319 21.3627129,15.8851721 21.3627129,15.1112262 L21.3627129,0 Z M16.2334821,17.9182651 L13.8275792,20.3241679 L13.8275792,17.9182651 L16.2334821,17.9182651 Z" id="Shape" fill="#FFFFFF"></path>
                <path d="M17.055674,2.80703892 L4.33043091,2.80703892 L4.33043091,15.1112262 L17.055674,15.1112262 L17.055674,2.80703892 Z M15.6521545,8.09362888 L13.8275792,8.09362888 L13.8275792,4.21055838 L15.6521545,4.21055838 L15.6521545,8.09362888 Z M13.8275792,9.49714834 L15.6521545,9.49714834 L15.6521545,10.9006678 L13.8275792,10.9006678 L13.8275792,9.49714834 Z M12.4240598,10.9006678 L5.73395037,10.9006678 L5.73395037,9.49714834 L12.4240598,9.49714834 L12.4240598,10.9006678 Z M12.4240598,4.21055838 L12.4240598,8.09362888 L5.73395037,8.09362888 L5.73395037,4.21055838 L12.4240598,4.21055838 Z M5.73395037,12.3041873 L12.4240598,12.3041873 L12.4240598,13.7077067 L5.73395037,13.7077067 L5.73395037,12.3041873 Z M13.8275792,13.7077067 L13.8275792,12.3041873 L15.6521545,12.3041873 L15.6521545,13.7077067 L13.8275792,13.7077067 Z" id="Shape" fill="#1F496A" fill-rule="nonzero"></path>
            </g>
        </g>
    </g>
</svg>