<?xml version="1.0" encoding="UTF-8"?>
<svg width="32px" height="32px" viewBox="0 0 32 32" version="1.1" xmlns="http://www.w3.org/2000/svg" xmlns:xlink="http://www.w3.org/1999/xlink">
    <!-- Generator: Sketch 58 (84663) - https://sketch.com -->
    <title>name</title>
    <desc>Created with Sketch.</desc>
    <g id="New-UX" stroke="none" stroke-width="1" fill="none" fill-rule="evenodd">
        <g id="customer-master-homepage" transform="translate(-304.000000, -109.000000)">
            <g id="Group-2" transform="translate(275.000000, 85.000000)">
                <g id="name" transform="translate(29.000000, 24.000000)">
                    <path d="M32,9.6 C32,6.84373333 30.4944,4.4368 28.2666667,3.14346667 L28.2666667,0.533333333 C28.2666667,0.2384 28.0277333,0 27.7333333,0 L0.533333333,0 C0.238933333,0 0,0.2384 0,0.533333333 L0,29.3333333 C0,30.8037333 1.19626667,32 2.66666667,32 L29.3333333,32 C30.8037333,32 32,30.8037333 32,29.3333333 L32,27.2 C32,26.9050667 31.7610667,26.6666667 31.4666667,26.6666667 L28.2666667,26.6666667 L28.2666667,16.0565333 C30.4944,14.7632 32,12.3562667 32,9.6 Z M30.9333333,29.3333333 C30.9333333,30.2154667 30.2154667,30.9333333 29.3333333,30.9333333 L4.8,30.9333333 C5.14613333,30.4709333 5.33333333,29.9146667 5.33333333,29.3333333 L5.33333333,27.7333333 L30.9333333,27.7333333 L30.9333333,29.3333333 Z M27.2,26.6666667 L4.8,26.6666667 C4.5056,26.6666667 4.26666667,26.9050667 4.26666667,27.2 L4.26666667,29.3333333 C4.26666667,29.7573333 4.09973333,30.1605333 3.8016,30.4629333 C3.49386667,30.7664 3.09066667,30.9333333 2.66666667,30.9333333 C1.78453333,30.9333333 1.06666667,30.2154667 1.06666667,29.3333333 L1.06666667,1.06666667 L27.2,1.06666667 L27.2,2.63413333 C26.3706667,2.3152 25.4736,2.13333333 24.5333333,2.13333333 C20.416,2.13333333 17.0666667,5.48266667 17.0666667,9.6 C17.0666667,11.8576 18.0778667,13.88 19.6666667,15.2501333 L16.3344,18.1333333 L11.7333333,18.1333333 L11.7333333,19.2 L16.5333333,19.2 C16.6613333,19.2 16.7856,19.1536 16.8821333,19.0698667 L20.544,15.9008 C21.6997333,16.6352 23.0656,17.0666667 24.5333333,17.0666667 C25.4736,17.0666667 26.3706667,16.8848 27.2,16.5658667 L27.2,26.6666667 Z" id="Shape" fill="#FFFFFF"></path>
                    <polygon id="Path" fill="#FFFFFF" points="3.73333333 3.2 8.53333333 3.2 8.53333333 4.26666667 3.73333333 4.26666667"></polygon>
                    <polygon id="Path" fill="#FFFFFF" points="11.7333333 3.2 16.5333333 3.2 16.5333333 4.26666667 11.7333333 4.26666667"></polygon>
                    <polygon id="Path" fill="#FFFFFF" points="3.73333333 5.33333333 8.53333333 5.33333333 8.53333333 6.4 3.73333333 6.4"></polygon>
                    <polygon id="Path" fill="#FFFFFF" points="11.7333333 5.33333333 16.5333333 5.33333333 16.5333333 6.4 11.7333333 6.4"></polygon>
                    <polygon id="Path" fill="#FFFFFF" points="3.73333333 7.46666667 8.53333333 7.46666667 8.53333333 8.53333333 3.73333333 8.53333333"></polygon>
                    <polygon id="Path" fill="#FFFFFF" points="11.7333333 7.46666667 16.5333333 7.46666667 16.5333333 8.53333333 11.7333333 8.53333333"></polygon>
                    <polygon id="Path" fill="#FFFFFF" points="3.73333333 9.6 8.53333333 9.6 8.53333333 10.6666667 3.73333333 10.6666667"></polygon>
                    <polygon id="Path" fill="#FFFFFF" points="11.7333333 9.6 16.5333333 9.6 16.5333333 10.6666667 11.7333333 10.6666667"></polygon>
                    <polygon id="Path" fill="#FFFFFF" points="3.73333333 11.7333333 8.53333333 11.7333333 8.53333333 12.8 3.73333333 12.8"></polygon>
                    <polygon id="Path" fill="#FFFFFF" points="11.7333333 11.7333333 16.5333333 11.7333333 16.5333333 12.8 11.7333333 12.8"></polygon>
                    <polygon id="Path" fill="#FFFFFF" points="3.73333333 13.8666667 8.53333333 13.8666667 8.53333333 14.9333333 3.73333333 14.9333333"></polygon>
                    <polygon id="Path" fill="#FFFFFF" points="11.7333333 13.8666667 16.5333333 13.8666667 16.5333333 14.9333333 11.7333333 14.9333333"></polygon>
                    <polygon id="Path" fill="#FFFFFF" points="3.73333333 16 8.53333333 16 8.53333333 17.0666667 3.73333333 17.0666667"></polygon>
                    <polygon id="Path" fill="#FFFFFF" points="11.7333333 16 16.5333333 16 16.5333333 17.0666667 11.7333333 17.0666667"></polygon>
                    <polygon id="Path" fill="#FFFFFF" points="3.73333333 18.1333333 8.53333333 18.1333333 8.53333333 19.2 3.73333333 19.2"></polygon>
                    <polygon id="Path" fill="#FFFFFF" points="19.7333333 18.1333333 24.5333333 18.1333333 24.5333333 19.2 19.7333333 19.2"></polygon>
                    <polygon id="Path" fill="#FFFFFF" points="3.73333333 20.2666667 8.53333333 20.2666667 8.53333333 21.3333333 3.73333333 21.3333333"></polygon>
                    <polygon id="Path" fill="#FFFFFF" points="11.7333333 20.2666667 16.5333333 20.2666667 16.5333333 21.3333333 11.7333333 21.3333333"></polygon>
                    <polygon id="Path" fill="#FFFFFF" points="19.7333333 20.2666667 24.5333333 20.2666667 24.5333333 21.3333333 19.7333333 21.3333333"></polygon>
                    <polygon id="Path" fill="#FFFFFF" points="3.73333333 22.4 8.53333333 22.4 8.53333333 23.4666667 3.73333333 23.4666667"></polygon>
                    <polygon id="Path" fill="#FFFFFF" points="11.7333333 22.4 16.5333333 22.4 16.5333333 23.4666667 11.7333333 23.4666667"></polygon>
                    <polygon id="Path" fill="#FFFFFF" points="19.7333333 22.4 24.5333333 22.4 24.5333333 23.4666667 19.7333333 23.4666667"></polygon>
                    <polygon id="Path" fill="#FFFFFF" points="3.73333333 24.5333333 8.53333333 24.5333333 8.53333333 25.6 3.73333333 25.6"></polygon>
                    <polygon id="Path" fill="#FFFFFF" points="11.7333333 24.5333333 16.5333333 24.5333333 16.5333333 25.6 11.7333333 25.6"></polygon>
                    <polygon id="Path" fill="#FFFFFF" points="19.7333333 24.5333333 24.5333333 24.5333333 24.5333333 25.6 19.7333333 25.6"></polygon>
                    <g id="user(1)" transform="translate(19.000000, 4.000000)" fill="#0095E6" fill-rule="nonzero">
                        <path d="M7.53706522,6.67663043 C7.20184783,6.67663043 6.92891304,6.94934783 6.92891304,7.28478261 C6.92891304,7.62 7.20184783,7.8926087 7.53706522,7.8926087 C7.87217391,7.8926087 8.14521739,7.62 8.14521739,7.28478261 C8.14521739,6.94934783 7.87217391,6.67663043 7.53706522,6.67663043 Z" id="Path"></path>
                        <path d="M9.62597826,6.41869565 C9.63021739,6.385 9.6326087,6.35108696 9.6326087,6.31684783 C9.6326087,6.09815217 9.5475,5.8923913 9.39271739,5.73771739 L9.08315217,5.42836957 C8.90978261,5.25402174 8.65108696,5.16641304 8.40336957,5.19652174 C8.25336957,5.0025 8.01847826,4.87728261 7.75478261,4.87728261 L7.31554348,4.87728261 C7.0526087,4.87728261 6.81836957,5.00184783 6.66826087,5.195 C6.42413043,5.16445652 6.16858696,5.25086957 5.99402174,5.42217391 L5.51217391,5.01586957 L4.58804348,5.9348913 L3.66163043,5.01586957 L3.12391304,5.46934783 L2.00456522,5.98456522 C1.83902174,6.05271739 1.69206522,6.1701087 1.59358696,6.33554348 L0,8.99967391 L5.84597826,8.99967391 L5.98826087,9.14173913 C6.16173913,9.31543478 6.4201087,9.40282609 6.66717391,9.37271739 C6.81717391,9.56673913 7.05206522,9.69195652 7.31565217,9.69195652 L7.7548913,9.69195652 C8.01782609,9.69195652 8.25228261,9.5673913 8.40228261,9.37423913 C8.64880435,9.40478261 8.90728261,9.31706522 9.08184783,9.1423913 L9.3926087,8.83173913 C9.5473913,8.67706522 9.6325,8.47141304 9.6325,8.2523913 C9.6325,8.21815217 9.63032609,8.18413043 9.62630435,8.15054348 C9.81858696,8.00043478 9.94228268,7.76652174 9.94228268,7.50434783 L9.94228268,7.0651087 C9.9423913,6.80271739 9.81847826,6.56869565 9.62597826,6.41869565 Z M9.29195652,7.50423913 C9.29195652,7.59641304 9.21717391,7.67130435 9.1251087,7.67130435 L8.85956522,7.67130435 C8.83184783,7.76684783 8.79380435,7.85902174 8.74576087,7.94641304 L8.93347826,8.13413043 C8.99869565,8.19934783 8.99869565,8.30521739 8.93347826,8.37043478 L8.62271739,8.68076087 C8.5598913,8.74380435 8.4498913,8.74380435 8.38684783,8.68076087 L8.19891304,8.49304348 C8.11163043,8.54097826 8.01934783,8.57923913 7.92380435,8.60706522 L7.92380435,8.8725 C7.92380435,8.96478261 7.84902174,9.03945652 7.75673913,9.03945652 L7.3173913,9.03945652 C7.22532609,9.03945652 7.15054348,8.96467391 7.15054348,8.8725 L7.15054348,8.60706522 C7.055,8.57923913 6.9626087,8.54130435 6.87532609,8.49304348 L6.6875,8.68076087 C6.62684783,8.74173913 6.51217391,8.74152174 6.45163043,8.68076087 L6.14097826,8.37043478 C6.10945652,8.33880435 6.09217391,8.29695652 6.09217391,8.25217391 C6.09217391,8.20826087 6.11,8.1651087 6.14108696,8.13413043 L6.32869565,7.94641304 C6.28086957,7.85880435 6.2425,7.76684783 6.21478261,7.67130435 L5.94923913,7.67130435 C5.85706522,7.67130435 5.7823913,7.59641304 5.7823913,7.50423913 L5.7823913,7.065 C5.7823913,6.97282609 5.85717391,6.89815217 5.94923913,6.89815217 L6.21478261,6.89815217 C6.2425,6.8026087 6.28054348,6.71021739 6.32869565,6.62282609 L6.14097826,6.4351087 C6.07565217,6.3698913 6.07565217,6.26423913 6.14097826,6.19902174 L6.45163043,5.88847826 C6.51445652,5.82543478 6.62445652,5.82543478 6.6875,5.88847826 L6.87532609,6.07619565 C6.96271739,6.02826087 7.055,5.99 7.15054348,5.96217391 L7.15054348,5.69673913 C7.15054348,5.60456522 7.22532609,5.52978261 7.3173913,5.52978261 L7.75663043,5.52978261 C7.84891304,5.52978261 7.92369565,5.60456522 7.92369565,5.69673913 L7.92369565,5.96206522 C8.01923913,5.9898913 8.11163043,6.02793478 8.19880435,6.07608696 L8.38673913,5.88836957 C8.4475,5.8276087 8.56228261,5.8276087 8.6226087,5.88836957 L8.93336957,6.19891304 C8.96478261,6.23032609 8.98206522,6.2723913 8.98206522,6.31695652 C8.98206522,6.36086957 8.96423913,6.40413043 8.93315217,6.435 L8.74565217,6.62282609 C8.79336957,6.71043478 8.83173913,6.8025 8.85945652,6.89804348 L9.125,6.89804348 C9.21717391,6.89804348 9.29184783,6.97282609 9.29184783,7.0648913 L9.29184783,7.50423913 L9.29195652,7.50423913 Z" id="Shape"></path>
                        <path d="M4.58086957,5.12695652 L4.58086957,5.12728261 C4.58184783,5.12728261 4.58304348,5.12706522 4.58402174,5.12706522 C4.58456522,5.12706522 4.58543478,5.12728261 4.58619565,5.12728261 C4.58630435,5.12728261 4.58663043,5.12728261 4.58695652,5.12728261 C4.58728261,5.12728261 4.5876087,5.12728261 4.5876087,5.12728261 C4.58847826,5.12728261 4.58934783,5.12706522 4.5898913,5.12706522 C4.59097826,5.12706522 4.59206522,5.12728261 4.59304348,5.12728261 L4.59304348,5.12695652 C5.89793478,5.14695652 6.69119565,4.00478261 6.71152174,2.12195652 C6.72467391,0.815652174 5.91467391,0.0688043478 4.59532609,0.0335869565 L4.59532609,0.0331521739 C4.59326087,0.0331521739 4.59184783,0.0332608696 4.58978261,0.0332608696 L4.58978261,0.0331521739 C4.58858696,0.0331521739 4.58771739,0.0331521739 4.58695652,0.0332608696 C4.58608696,0.0331521739 4.585,0.0331521739 4.58402174,0.0331521739 L4.58402174,0.0332608696 C4.58195652,0.0332608696 4.58043478,0.0331521739 4.57869565,0.0331521739 L4.57869565,0.0335869565 C3.25934783,0.0688043478 2.44913043,0.815652174 2.46228261,2.12184783 C2.48282609,4.00467391 3.27597826,5.14673913 4.58086957,5.12695652 Z" id="Path"></path>
                    </g>
                </g>
            </g>
        </g>
    </g>
</svg>