<?xml version="1.0" encoding="UTF-8"?>
<svg width="24px" height="24px" viewBox="0 0 24 24" version="1.1" xmlns="http://www.w3.org/2000/svg" xmlns:xlink="http://www.w3.org/1999/xlink">
    <!-- Generator: Sketch 58 (84663) - https://sketch.com -->
    <title>Combined Shape</title>
    <desc>Created with Sketch.</desc>
    <g id="Symbols" stroke="none" stroke-width="1" fill="none" fill-rule="evenodd">
        <g id="Icons/24px/golden-rules" fill="#FFFFFF" fill-rule="nonzero">
            <path d="M20,0 L24,4 L24,21 C24,22.6568542 22.6568542,24 21,24 L3,24 C1.34314575,24 0,22.6568542 0,21 L0,3 C0,1.34314575 1.34314575,0 3,0 L20,0 Z M19,1.499 L3,1.5 C2.17157288,1.5 1.5,2.17157288 1.5,3 L1.5,21 C1.5,21.8284271 2.17157288,22.5 3,22.5 L21,22.5 C21.8284271,22.5 22.5,21.8284271 22.5,21 L22.5,5 L19,5 L19,1.499 Z M9.02313043,17.1648696 C9.82694071,17.1648696 9.86347754,18.3533352 9.13274093,18.4613776 L9.02313043,18.4692174 L5.63078261,18.4692174 C4.82796838,18.4692174 4.79147682,17.2807517 5.52130794,17.1727094 L5.63078261,17.1648696 L9.02313043,17.1648696 Z M18.0231304,17.1648696 C18.8269407,17.1648696 18.8634775,18.3533352 18.1327409,18.4613776 L18.0231304,18.4692174 L14.6307826,18.4692174 C13.8279684,18.4692174 13.7914768,17.2807517 14.5213079,17.1727094 L14.6307826,17.1648696 L18.0231304,17.1648696 Z M9.02313043,14.0347826 C9.82694071,14.0347826 9.86347754,15.2232483 9.13274093,15.3312906 L9.02313043,15.3391304 L5.63078261,15.3391304 C4.82796838,15.3391304 4.79147682,14.1506648 5.52130794,14.0426224 L5.63078261,14.0347826 L9.02313043,14.0347826 Z M18.0231304,14.0347826 C18.8269407,14.0347826 18.8634775,15.2232483 18.1327409,15.3312906 L18.0231304,15.3391304 L14.6307826,15.3391304 C13.8279684,15.3391304 13.7914768,14.1506648 14.5213079,14.0426224 L14.6307826,14.0347826 L18.0231304,14.0347826 Z M9.02313043,11.1306087 C9.82694071,11.1306087 9.86347754,12.3190744 9.13274093,12.4271167 L9.02313043,12.4349565 L5.63078261,12.4349565 C4.82796838,12.4349565 4.79147682,11.2464908 5.52130794,11.1384485 L5.63078261,11.1306087 L9.02313043,11.1306087 Z M18.0231304,11.1306087 C18.8269407,11.1306087 18.8634775,12.3190744 18.1327409,12.4271167 L18.0231304,12.4349565 L14.6307826,12.4349565 C13.8279684,12.4349565 13.7914768,11.2464908 14.5213079,11.1384485 L14.6307826,11.1306087 L18.0231304,11.1306087 Z M18.0231304,8 C18.8264427,8 18.8629569,9.18846568 18.132673,9.29650802 L18.0231304,9.30434783 L14.6307826,9.30434783 C13.8284664,9.30434783 13.7919975,8.11588214 14.5213759,8.00783981 L14.6307826,8 L18.0231304,8 Z M9.02313043,8 C9.86469565,8 9.86469565,9.30434783 9.02313043,9.30434783 L9.02313043,9.30434783 L5.63078261,9.30434783 C4.79026087,9.30434783 4.79026087,8 5.63078261,8 L5.63078261,8 Z" id="Combined-Shape"></path>
        </g>
    </g>
</svg>