<?xml version="1.0" encoding="UTF-8"?>
<svg width="24px" height="24px" viewBox="0 0 24 24" version="1.1" xmlns="http://www.w3.org/2000/svg" xmlns:xlink="http://www.w3.org/1999/xlink">
    <!-- Generator: Sketch 58 (84663) - https://sketch.com -->
    <title>feedback</title>
    <desc>Created with Sketch.</desc>
    <g id="Symbols" stroke="none" stroke-width="1" fill="none" fill-rule="evenodd">
        <g id="Icons/24px/manual-review" fill="#FFFFFF" fill-rule="nonzero">
            <g id="feedback">
                <path d="M6.23313171,9.15438049 C6.06393694,9.15438049 5.90161545,9.08756574 5.78109315,8.96704343 L4.50234193,7.68829221 C4.25258583,7.43853612 4.25258583,7.03389128 4.50234193,6.7842151 C4.75209803,6.53453893 5.15674287,6.534459 5.40641904,6.7842151 L6.16383938,7.54163543 L7.63991789,5.57419676 C7.85155122,5.29135298 8.2530791,5.23516784 8.53464414,5.4461618 C8.81748792,5.65779512 8.8749518,6.05868363 8.6626791,6.34088804 L6.74455227,8.89839048 C6.63338084,9.04696539 6.46354669,9.13943508 6.27876714,9.15254228 C6.26310244,9.15374111 6.24815703,9.15438049 6.23313171,9.15438049 L6.23313171,9.15438049 Z" id="Path"></path>
                <path d="M6.23313171,14.2693854 C6.06393694,14.2693854 5.90161545,14.2025706 5.78109315,14.0820483 L4.50234193,12.8032971 C4.25258583,12.553541 4.25258583,12.1488962 4.50234193,11.89922 C4.75209803,11.6495438 5.15674287,11.6494639 5.40641904,11.89922 L6.16383938,12.6566403 L7.63991789,10.6892016 C7.85155122,10.4069972 8.2530791,10.3495333 8.53464414,10.5611667 C8.81748792,10.7728 8.8749518,11.1736885 8.6626791,11.4558929 L6.74455227,14.0133954 C6.63338084,14.1619703 6.46354669,14.25444 6.27876714,14.2675472 C6.26310244,14.268746 6.24815703,14.2693854 6.23313171,14.2693854 Z" id="Path"></path>
                <g id="Group" transform="translate(4.315005, 5.318127)">
                    <path d="M3.83625366,15.3450146 L0.63937561,15.3450146 C0.285960741,15.3450146 0,15.0590539 0,14.705639 L0,11.508761 C0,11.1553461 0.285960741,10.8693854 0.63937561,10.8693854 L3.83625366,10.8693854 C4.18966853,10.8693854 4.47562927,11.1553461 4.47562927,11.508761 L4.47562927,14.705639 C4.47562927,15.0590539 4.18966853,15.3450146 3.83625366,15.3450146 Z M1.27875122,14.0662634 L3.19687805,14.0662634 L3.19687805,12.1481366 L1.27875122,12.1481366 L1.27875122,14.0662634 Z" id="Shape"></path>
                    <path d="M12.1481366,1.27875122 L6.3937561,1.27875122 C6.04034123,1.27875122 5.75438049,0.992790478 5.75438049,0.63937561 C5.75438049,0.285960741 6.04034123,0 6.3937561,0 L12.1481366,0 C12.5015515,0 12.7875122,0.285960741 12.7875122,0.63937561 C12.7875122,0.992790478 12.5015515,1.27875122 12.1481366,1.27875122 Z" id="Path"></path>
                    <path d="M8.95125854,3.19687805 L6.3937561,3.19687805 C6.04034123,3.19687805 5.75438049,2.91091731 5.75438049,2.55750244 C5.75438049,2.20408757 6.04034123,1.91812683 6.3937561,1.91812683 L8.95125854,1.91812683 C9.3046734,1.91812683 9.59063415,2.20408757 9.59063415,2.55750244 C9.59063415,2.91091731 9.3046734,3.19687805 8.95125854,3.19687805 Z" id="Path"></path>
                    <path d="M12.1481366,7.03313171 L6.3937561,7.03313171 C6.04034123,7.03313171 5.75438049,6.74717097 5.75438049,6.3937561 C5.75438049,6.04034123 6.04034123,5.75438049 6.3937561,5.75438049 L12.1481366,5.75438049 C12.5015515,5.75438049 12.7875122,6.04034123 12.7875122,6.3937561 C12.7875122,6.74717097 12.5015515,7.03313171 12.1481366,7.03313171 Z" id="Path"></path>
                    <path d="M8.95125854,8.95125854 L6.3937561,8.95125854 C6.04034123,8.95125854 5.75438049,8.6652978 5.75438049,8.31188293 C5.75438049,7.95846806 6.04034123,7.67250732 6.3937561,7.67250732 L8.95125854,7.67250732 C9.3046734,7.67250732 9.59063415,7.95846806 9.59063415,8.31188293 C9.59063415,8.6652978 9.3046734,8.95125854 8.95125854,8.95125854 Z" id="Path"></path>
                    <path d="M12.1481366,12.1481366 L6.3937561,12.1481366 C6.04034123,12.1481366 5.75438049,11.8621758 5.75438049,11.508761 C5.75438049,11.1553461 6.04034123,10.8693854 6.3937561,10.8693854 L12.1481366,10.8693854 C12.5015515,10.8693854 12.7875122,11.1553461 12.7875122,11.508761 C12.7875122,11.8621758 12.5015515,12.1481366 12.1481366,12.1481366 Z" id="Path"></path>
                    <path d="M8.95125854,14.0662634 L6.3937561,14.0662634 C6.04034123,14.0662634 5.75438049,13.7803027 5.75438049,13.4268878 C5.75438049,13.0734729 6.04034123,12.7875122 6.3937561,12.7875122 L8.95125854,12.7875122 C9.3046734,12.7875122 9.59063415,13.0734729 9.59063415,13.4268878 C9.59063415,13.7803027 9.3046734,14.0662634 8.95125854,14.0662634 Z" id="Path"></path>
                </g>
                <path d="M20,0 L24,4 L24,21 C24,22.6568542 22.6568542,24 21,24 L3,24 C1.34314575,24 0,22.6568542 0,21 L0,3 C0,1.34314575 1.34314575,0 3,0 L20,0 Z M19,1.499 L3,1.5 C2.17157288,1.5 1.5,2.17157288 1.5,3 L1.5,21 C1.5,21.8284271 2.17157288,22.5 3,22.5 L21,22.5 C21.8284271,22.5 22.5,21.8284271 22.5,21 L22.5,5 L19,5 L19,1.499 Z" id="Combined-Shape"></path>
            </g>
        </g>
    </g>
</svg>