<?xml version="1.0" encoding="UTF-8"?>
<svg width="24px" height="24px" viewBox="0 0 24 24" version="1.1" xmlns="http://www.w3.org/2000/svg" xmlns:xlink="http://www.w3.org/1999/xlink">
    <!-- Generator: Sketch 61 (89581) - https://sketch.com -->
    <title>file(7)</title>
    <desc>Created with Sketch.</desc>
    <g id="New-UX" stroke="none" stroke-width="1" fill="none" fill-rule="evenodd">
        <g id="customer-master-admin-homepage" transform="translate(-1158.000000, -316.000000)" fill="#FFFFFF" fill-rule="nonzero">
            <g id="file(7)" transform="translate(1158.000000, 316.000000)">
                <path d="M13.024875,18.69675 C13.5513281,18.5051719 14.0530781,18.251625 14.519625,17.9415 L13.690125,16.692 C13.323,16.9363125 12.9279375,17.1357188 12.513375,17.286 L13.024875,18.69675 Z" id="Path"></path>
                <path d="M10.591125,4.875 C6.65610938,4.87528125 3.46635938,8.06545313 3.46659375,12.0004688 C3.46678125,14.974125 5.31375,17.6349375 8.099625,18.675 L8.624625,17.27025 C5.71204688,16.1895469 4.22704688,12.9523594 5.30775,10.0397813 C6.38845313,7.12720313 9.62564063,5.64220313 12.5382188,6.72290625 C14.6486719,7.506 16.0890469,9.47189063 16.199625,11.72025 L14.194125,9.71475 L13.133625,10.77525 L16.966125,14.6055 L20.796375,10.77525 L19.735875,9.71475 L17.703375,11.74725 C17.5673906,7.91620313 14.4245625,4.87945313 10.591125,4.875 Z" id="Path"></path>
                <path d="M9.907125,17.583 L9.726375,19.07325 C10.018125,19.10775 10.326375,19.11975 10.609125,19.125 C10.8727969,19.1249063 11.1362344,19.109625 11.398125,19.07925 L11.227875,17.58975 C11.0216719,17.6129063 10.8143906,17.6246719 10.606875,17.625 C10.377375,17.61975 10.135875,17.6115 9.907125,17.583 Z" id="Path"></path>
                <path d="M20,0 L24,4 L24,21 C24,22.6568542 22.6568542,24 21,24 L3,24 C1.34314575,24 0,22.6568542 0,21 L0,3 C0,1.34314575 1.34314575,0 3,0 L20,0 Z M19,1.5 L3,1.5 C2.17157288,1.5 1.5,2.17157288 1.5,3 L1.5,21 C1.5,21.8284271 2.17157288,22.5 3,22.5 L21,22.5 C21.8284271,22.5 22.5,21.8284271 22.5,21 L22.5,5 L19,5 L19,1.5 Z" id="Combined-Shape" transform="translate(12.000000, 12.000000) scale(-1, 1) translate(-12.000000, -12.000000) "></path>
            </g>
        </g>
    </g>
</svg>