<?xml version="1.0" encoding="UTF-8"?>
<svg width="19px" height="18px" viewBox="0 0 19 18" version="1.1" xmlns="http://www.w3.org/2000/svg" xmlns:xlink="http://www.w3.org/1999/xlink">
    <!-- Generator: Sketch 58 (84663) - https://sketch.com -->
    <title>add(5)</title>
    <desc>Created with Sketch.</desc>
    <g id="New-UX" stroke="none" stroke-width="1" fill="none" fill-rule="evenodd">
        <g id="customer-master-Golden-Customer-3" transform="translate(-515.000000, -389.000000)" fill="#FFFFFF" fill-rule="nonzero">
            <g id="Group-3" transform="translate(276.000000, 263.000000)">
                <g id="add(5)" transform="translate(239.000000, 126.000000)">
                    <polygon id="Path" points="1.8495356 1.88470588 16.3048916 1.88470588 16.3048916 7.94798762 18.1543034 7.94798762 18.1543034 0.0351702786 0 0.0351702786 0 15.8606811 13.7830341 15.8606811 13.7830341 14.0112693 1.8495356 14.0112693"></polygon>
                    <path d="M19.9892195,13.045042 C19.9673494,12.9821901 19.9163148,12.9411765 19.8596812,12.9411765 L18.3234502,12.9411765 L15.7999623,12.9411765 L14.2578432,12.9411765 C14.2012096,12.9411765 14.150175,12.9822059 14.1283049,13.0447269 C14.1067107,13.1075788 14.118487,13.1798529 14.1585865,13.2279254 L16.9554377,16.591959 C16.9817896,16.6235504 17.0174074,16.6413708 17.0546944,16.6413708 C17.0919814,16.6413708 17.1275992,16.6235504 17.1539511,16.5922899 L19.9589378,13.2282563 C19.9990374,13.1801681 20.0110897,13.1079097 19.9892195,13.045042 Z" id="Path" transform="translate(17.058824, 14.791274) rotate(-90.000000) translate(-17.058824, -14.791274) "></path>
                    <polygon id="Path" points="13.4018576 6.9526935 9.97857585 6.9526935 9.97857585 3.52941176 8.12916409 3.52941176 8.12916409 6.9526935 4.70588235 6.9526935 4.70588235 8.8022291 8.12916409 8.8022291 8.12916409 12.2255108 9.97857585 12.2255108 9.97857585 8.8022291 13.4018576 8.8022291"></polygon>
                </g>
            </g>
        </g>
    </g>
</svg>