<?xml version="1.0" encoding="UTF-8"?>
<svg width="16px" height="18px" viewBox="0 0 16 18" version="1.1" xmlns="http://www.w3.org/2000/svg" xmlns:xlink="http://www.w3.org/1999/xlink">
    <!-- Generator: Sketch 57.1 (83088) - https://sketch.com -->
    <title>checklist</title>
    <desc>Created with Sketch.</desc>
    <g id="New-UX" stroke="none" stroke-width="1" fill="none" fill-rule="evenodd">
        <g id="customer-master-filters-2-copy-2" transform="translate(-298.000000, -200.000000)" fill="#666666" fill-rule="nonzero">
            <g id="Group-2" transform="translate(286.000000, 189.000000)">
                <g id="checklist" transform="translate(12.000000, 11.000000)">
                    <path d="M12.8482286,5.33333333 L7.65116391,5.33333333 C7.45183759,5.33333333 7.29026165,5.49042105 7.29026165,5.68421053 C7.29026165,5.878 7.45183759,6.03508772 7.65116391,6.03508772 L12.8482286,6.03508772 C13.0475549,6.03508772 13.2091308,5.878 13.2091308,5.68421053 C13.2091308,5.49042105 13.0475549,5.33333333 12.8482286,5.33333333 Z" id="Path"></path>
                    <path d="M11.5853594,7.12038596 C11.5182316,7.05512281 11.4251188,7.01757895 11.3302015,7.01757895 C11.2352842,7.01757895 11.1421714,7.05512281 11.0750436,7.12038596 C11.0079158,7.18564912 10.9692992,7.27617544 10.9692992,7.36845614 C10.9692992,7.46073684 11.0079158,7.55126316 11.0750436,7.61652632 C11.1421714,7.68178947 11.2352842,7.71933333 11.3302015,7.71933333 C11.4251188,7.71933333 11.5182316,7.68178947 11.5853594,7.61652632 C11.6524872,7.55126316 11.6911038,7.46073684 11.6911038,7.36845614 C11.6911038,7.27617544 11.6524872,7.18564912 11.5853594,7.12038596 Z" id="Path"></path>
                    <path d="M7.9059609,1.61161404 C7.83883308,1.54635088 7.7457203,1.50880702 7.65080301,1.50880702 C7.55588571,1.50880702 7.46277293,1.54635088 7.39564511,1.61161404 C7.32851729,1.67687719 7.28990075,1.76740351 7.28990075,1.85968421 C7.28990075,1.95196491 7.32851729,2.04249123 7.39564511,2.10775439 C7.46277293,2.17301754 7.55588571,2.2105614 7.65080301,2.2105614 C7.7457203,2.2105614 7.83883308,2.17301754 7.9059609,2.10775439 C7.97308872,2.04249123 8.01170526,1.95196491 8.01170526,1.85968421 C8.01170526,1.76740351 7.97308872,1.67687719 7.9059609,1.61161404 Z" id="Path"></path>
                    <path d="M9.81213835,7.01754386 L7.65116391,7.01754386 C7.45183759,7.01754386 7.29026165,7.17463158 7.29026165,7.36842105 C7.29026165,7.56221053 7.45183759,7.71929825 7.65116391,7.71929825 L9.81213835,7.71929825 C10.0114647,7.71929825 10.1730406,7.56221053 10.1730406,7.36842105 C10.1730406,7.17463158 10.0114647,7.01754386 9.81213835,7.01754386 Z" id="Path"></path>
                    <path d="M12.8482286,9.12280702 L7.65116391,9.12280702 C7.45183759,9.12280702 7.29026165,9.27989474 7.29026165,9.47368421 C7.29026165,9.66747368 7.45183759,9.8245614 7.65116391,9.8245614 L12.8482286,9.8245614 C13.0475549,9.8245614 13.2091308,9.66747368 13.2091308,9.47368421 C13.2091308,9.27989474 13.0475549,9.12280702 12.8482286,9.12280702 Z" id="Path"></path>
                    <path d="M11.5853594,10.9098596 C11.5182316,10.8445965 11.4251188,10.8070526 11.3302015,10.8070526 C11.2352842,10.8070526 11.1421714,10.8445965 11.0750436,10.9098596 C11.0079158,10.9751228 10.9692992,11.0656491 10.9692992,11.1579298 C10.9692992,11.2502105 11.0079158,11.3407368 11.0750436,11.406 C11.1421714,11.4712632 11.2352842,11.508807 11.3302015,11.508807 C11.4251188,11.508807 11.5182316,11.4712632 11.5853594,11.406 C11.6524872,11.3407368 11.6911038,11.2502105 11.6911038,11.1579298 C11.6911038,11.0656491 11.6524872,10.9751228 11.5853594,10.9098596 Z" id="Path"></path>
                    <path d="M9.81213835,10.8070175 L7.65116391,10.8070175 C7.45183759,10.8070175 7.29026165,10.9641053 7.29026165,11.1578947 C7.29026165,11.3516842 7.45183759,11.5087719 7.65116391,11.5087719 L9.81213835,11.5087719 C10.0114647,11.5087719 10.1730406,11.3516842 10.1730406,11.1578947 C10.1730406,10.9641053 10.0114647,10.8070175 9.81213835,10.8070175 Z" id="Path"></path>
                    <path d="M12.8482286,12.9122807 L7.65116391,12.9122807 C7.45183759,12.9122807 7.29026165,13.0693684 7.29026165,13.2631579 C7.29026165,13.4569474 7.45183759,13.6140351 7.65116391,13.6140351 L12.8482286,13.6140351 C13.0475549,13.6140351 13.2091308,13.4569474 13.2091308,13.2631579 C13.2091308,13.0693684 13.0475549,12.9122807 12.8482286,12.9122807 Z" id="Path"></path>
                    <path d="M11.5853594,14.6993333 C11.5182316,14.6340702 11.4251188,14.5965263 11.3302015,14.5965263 C11.2352842,14.5965263 11.1421714,14.6340702 11.0750436,14.6993333 C11.0079158,14.7645965 10.9692992,14.8551228 10.9692992,14.9474035 C10.9692992,15.0396842 11.0079158,15.1302105 11.0750436,15.1954737 C11.1421714,15.2607368 11.2352842,15.2982807 11.3302015,15.2982807 C11.4251188,15.2982807 11.5182316,15.2607368 11.5853594,15.1954737 C11.6524872,15.1302105 11.6911038,15.0396842 11.6911038,14.9474035 C11.6911038,14.8551228 11.6524872,14.7645965 11.5853594,14.6993333 Z" id="Path"></path>
                    <path d="M9.81213835,14.5964912 L7.65116391,14.5964912 C7.45183759,14.5964912 7.29026165,14.7535789 7.29026165,14.9473684 C7.29026165,15.1411579 7.45183759,15.2982456 7.65116391,15.2982456 L9.81213835,15.2982456 C10.0114647,15.2982456 10.1730406,15.1411579 10.1730406,14.9473684 C10.1730406,14.7535789 10.0114647,14.5964912 9.81213835,14.5964912 Z" id="Path"></path>
                    <path d="M13.5426045,1.36845614 L10.7860692,1.36845614 C10.387597,0.999298246 9.84895038,0.771929825 9.25638496,0.771929825 L8.94023459,0.771929825 C8.69853835,0.306736842 8.20197293,0 7.65112782,0 C7.10028271,0 6.60375338,0.306736842 6.36202105,0.771929825 L6.04511278,0.771929825 C5.45254737,0.771929825 4.91393684,0.999298246 4.51546466,1.36845614 L1.75972331,1.36845614 C0.789437594,1.36845614 3.60902256e-05,2.13592982 3.60902256e-05,3.07926316 L3.60902256e-05,16.2541404 C3.60902256e-05,17.1974737 0.789437594,17.9649474 1.75972331,17.9649474 L13.5425684,17.9649474 C14.5128541,17.9649474 15.3022556,17.1974737 15.3022556,16.2541404 L15.3022556,3.07926316 C15.3022556,2.13592982 14.5128902,1.36845614 13.5426045,1.36845614 Z M6.04514887,1.47368421 L6.60765113,1.47368421 C6.76998496,1.47368421 6.91232481,1.36831579 6.95552481,1.21621053 C7.0416,0.913298246 7.32765113,0.701754386 7.65116391,0.701754386 C7.97467669,0.701754386 8.26072782,0.913298246 8.34676692,1.21621053 C8.38996692,1.36831579 8.53234286,1.47368421 8.6946406,1.47368421 L9.25638496,1.47368421 C10.0397233,1.47368421 10.6845113,2.06140351 10.7488602,2.80705263 L4.55267368,2.80705263 C4.61702256,2.06140351 5.26184662,1.47368421 6.04514887,1.47368421 Z M14.5804872,16.2541754 C14.5804872,16.8105614 14.1148872,17.2632281 13.5426045,17.2632281 L1.75972331,17.2632281 C1.1874406,17.2632281 0.721840602,16.8105614 0.721840602,16.2541754 L0.721840602,3.07926316 C0.721840602,2.52287719 1.1874406,2.07021053 1.75972331,2.07021053 L4.0098406,2.07021053 C3.89160902,2.33378947 3.8256,2.62438596 3.8256,2.92985965 L3.8256,3.15792982 C3.8256,3.3517193 3.98717594,3.50880702 4.18650226,3.50880702 L11.1150677,3.50880702 C11.314394,3.50880702 11.4759699,3.3517193 11.4759699,3.15792982 L11.4759699,2.92985965 C11.4759699,2.62442105 11.4099609,2.33378947 11.2917293,2.07021053 L13.5426045,2.07021053 C14.1148872,2.07021053 14.5804872,2.52287719 14.5804872,3.07926316 L14.5804872,16.2541754 Z" id="Shape"></path>
                    <path d="M5.3467218,5.26066228 C5.20578947,5.12364474 4.97726617,5.12364474 4.83633383,5.26062719 L3.29304361,6.76108333 L2.81762707,6.29883772 C2.67669474,6.16185526 2.44817143,6.16185526 2.30720301,6.29883772 C2.16627068,6.43585526 2.16627068,6.6580307 2.30720301,6.79508333 L3.03784962,7.50543421 C3.10833383,7.57396053 3.20068872,7.60820614 3.29304361,7.60820614 C3.3853985,7.60820614 3.47778947,7.57396053 3.54823759,7.50543421 L5.3467218,5.7569079 C5.48765414,5.61989035 5.48765414,5.39771491 5.3467218,5.26066228 Z" id="Path"></path>
                    <path d="M5.3467218,9.08522368 C5.20578947,8.94820614 4.97726617,8.94820614 4.83633383,9.0851886 L3.29304361,10.5856447 L2.81762707,10.1233991 C2.67669474,9.98641667 2.44817143,9.98641667 2.30720301,10.1233991 C2.16627068,10.2604167 2.16627068,10.4825921 2.30720301,10.6196447 L3.03784962,11.3299956 C3.10833383,11.3985219 3.20068872,11.4327675 3.29304361,11.4327675 C3.3853985,11.4327675 3.47778947,11.3985219 3.54823759,11.3299956 L5.3467218,9.5814693 C5.48765414,9.44445175 5.48765414,9.22227632 5.3467218,9.08522368 Z" id="Path-Copy"></path>
                    <path d="M5.3467218,12.9097851 C5.20578947,12.7727675 4.97726617,12.7727675 4.83633383,12.90975 L3.29304361,14.4102061 L2.81762707,13.9479605 C2.67669474,13.8109781 2.44817143,13.8109781 2.30720301,13.9479605 C2.16627068,14.0849781 2.16627068,14.3071535 2.30720301,14.4442061 L3.03784962,15.154557 C3.10833383,15.2230833 3.20068872,15.2573289 3.29304361,15.2573289 C3.3853985,15.2573289 3.47778947,15.2230833 3.54823759,15.154557 L5.3467218,13.4060307 C5.48765414,13.2690132 5.48765414,13.0468377 5.3467218,12.9097851 Z" id="Path-Copy-2"></path>
                </g>
            </g>
        </g>
    </g>
</svg>