<?xml version="1.0" encoding="UTF-8"?>
<svg width="20px" height="15px" viewBox="0 0 20 15" version="1.1" xmlns="http://www.w3.org/2000/svg" xmlns:xlink="http://www.w3.org/1999/xlink">
    <!-- Generator: Sketch 57.1 (83088) - https://sketch.com -->
    <title>share-files</title>
    <desc>Created with Sketch.</desc>
    <g id="New-UX" stroke="none" stroke-width="1" fill="none" fill-rule="evenodd">
        <g id="customer-master-filters-2-copy-2" transform="translate(-298.000000, -261.000000)" fill="#666666" fill-rule="nonzero">
            <g id="Group-8" transform="translate(288.000000, 249.000000)">
                <g id="Group-9">
                    <g id="share-files" transform="translate(10.434783, 12.173913)">
                        <path d="M18.5497403,14.2868337 L0.562108268,14.2868337 C0.251793359,14.2868337 0,14.0412276 0,13.738173 L0,0.585352488 C0,0.282297944 0.251793359,0.0366917865 0.562108268,0.0366917865 L6.49622681,0.0366917865 C6.80654172,0.0366917865 7.05833508,0.282297944 7.05833508,0.585352488 L7.05833508,3.92651147 C7.05833508,3.9410983 7.05774902,3.95552168 7.05657692,3.96994507 C7.08056322,5.58622235 8.43493102,6.89401079 10.0963904,6.89401079 L12.9625649,6.89401079 C13.2728798,6.89401079 13.5246732,7.13961694 13.5246732,7.44267149 C13.5246732,7.74572603 13.2728798,7.99133219 12.9625649,7.99133219 L10.0963904,7.99133219 C7.80023594,7.99133219 5.93206736,6.16785663 5.93206736,3.92651147 C5.93206736,3.91065801 5.93265341,3.89492712 5.93411854,3.87935967 L5.93411854,1.13401319 L1.12421654,1.13401319 L1.12421654,13.1895123 L17.987632,13.1895123 L17.987632,1.13401319 L11.0493121,1.13401319 C10.7389972,1.13401319 10.4872039,0.888407032 10.4872039,0.585352488 C10.4872039,0.282297944 10.7389972,0.0366917865 11.0493121,0.0366917865 L18.5496984,0.0366917865 C18.8600133,0.0366917865 19.1118067,0.282297944 19.1118067,0.585352488 L19.1118067,13.738173 C19.1118067,14.0412276 18.8600552,14.2868337 18.5497403,14.2868337 Z" id="Path"></path>
                        <path d="M11.7789059,10.3694748 C11.6351556,10.3694748 11.4911122,10.315908 11.381311,10.2087337 C11.1620436,9.99454847 11.1620436,9.6470797 11.381311,9.43289446 L13.4204395,7.44271235 L11.381311,5.45236679 C11.1620436,5.23818155 11.1620436,4.89071279 11.381311,4.67652755 C11.6008715,4.46221973 11.9568985,4.46221973 12.1764589,4.67652755 L14.6128475,7.05479272 C14.8321149,7.26897796 14.8321149,7.61644673 14.6128475,7.83063197 L12.1764589,10.2087337 C12.0666996,10.3158672 11.9226563,10.3694748 11.7789059,10.3694748 Z" id="Path"></path>
                    </g>
                </g>
            </g>
        </g>
    </g>
</svg>