<?xml version="1.0" encoding="UTF-8"?>
<svg width="24px" height="22px" viewBox="0 0 24 22" version="1.1" xmlns="http://www.w3.org/2000/svg" xmlns:xlink="http://www.w3.org/1999/xlink">
    <!-- Generator: Sketch 57.1 (83088) - https://sketch.com -->
    <title>percentage</title>
    <desc>Created with Sketch.</desc>
    <g id="New-UX" stroke="none" stroke-width="1" fill="none" fill-rule="evenodd">
        <g id="customer-master-filters-2-copy-2" transform="translate(-554.000000, -198.000000)" fill="#666666" fill-rule="nonzero">
            <g id="Group-3" transform="translate(546.000000, 189.000000)">
                <g id="Group-5">
                    <g id="percentage" transform="translate(8.695652, 9.565217)">
                        <path d="M19.6868785,3.06085397 C17.7169039,1.09087931 15.09651,0.00528758043 12.3123416,0.00528758043 C9.47670111,0.00528758043 6.82355235,1.12363424 4.84421915,3.15443946 C4.62897251,3.37436537 4.63365178,3.72999025 4.8535777,3.94991616 C5.07350361,4.1651628 5.42912849,4.16048353 5.6490544,3.94055761 C7.41782024,2.1296783 9.78085397,1.13299279 12.3123416,1.13299279 C17.4455059,1.12831351 21.619419,5.30222655 21.619419,10.4353909 C21.619419,15.5685553 17.4455059,19.7424683 12.3123416,19.7424683 C7.17917723,19.7424683 3.00526418,15.5685553 3.00526418,10.4353909 L3.00526418,10.318409 L3.93176058,11.2449054 C4.0393839,11.3525288 4.18444141,11.4086801 4.32949893,11.4086801 C4.47455644,11.4086801 4.61493469,11.3525288 4.72723728,11.2449054 C4.94716319,11.0249795 4.94716319,10.6693547 4.72723728,10.4494287 L2.84616884,8.56368103 C2.62624293,8.34375512 2.27061805,8.34375512 2.05069214,8.56368103 L0.164944434,10.4494287 C-0.0549814779,10.6693547 -0.0549814779,11.0249795 0.164944434,11.2449054 C0.384870345,11.4648314 0.740495223,11.4648314 0.960421135,11.2449054 L1.88691753,10.318409 L1.88691753,10.4353909 C1.88691753,13.2195594 2.97250926,15.8399532 4.94248391,17.8099279 C6.91245857,19.7799025 9.53285241,20.8654942 12.3170209,20.8654942 C15.1011893,20.8654942 17.7215832,19.7799025 19.6915578,17.8099279 C21.6615325,15.8399532 22.7424449,13.2195594 22.7424449,10.4353909 C22.7424449,7.65122246 21.6568532,5.03082862 19.6868785,3.06085397 Z" id="Path"></path>
                        <path d="M15.2977189,6.64049912 L8.40046793,13.5330708 C8.18054202,13.7529967 8.18054202,14.1086216 8.40046793,14.3285475 C8.50809125,14.4361708 8.65314876,14.4923221 8.79820628,14.4923221 C8.94326379,14.4923221 9.08364204,14.4361708 9.19594463,14.3285475 L16.0931956,7.43129655 C16.3131215,7.21137064 16.3131215,6.85574576 16.0931956,6.63581985 C15.8732696,6.42057321 15.5176448,6.42057321 15.2977189,6.64049912 Z" id="Path"></path>
                        <path d="M13.4915188,11.2823396 C12.7100799,12.0637785 12.7100799,13.3412205 13.4915188,14.1226594 C13.8705401,14.5016806 14.3759017,14.712248 14.9140183,14.712248 C15.4521349,14.712248 15.9574966,14.5016806 16.3365178,14.1226594 C17.1179567,13.3412205 17.1179567,12.0637785 16.3365178,11.2823396 C15.9574966,10.9033184 15.4521349,10.692751 14.9140183,10.692751 C14.3759017,10.692751 13.8752193,10.9033184 13.4915188,11.2823396 Z M15.5410411,13.331862 C15.3725872,13.5003159 15.1526613,13.5892221 14.9140183,13.5892221 C14.6753753,13.5892221 14.4554494,13.4956366 14.2869955,13.331862 C13.9407292,12.9855956 13.9407292,12.4240827 14.2869955,12.0778163 C14.4554494,11.9093624 14.6753753,11.8204562 14.9140183,11.8204562 C15.1526613,11.8204562 15.3725872,11.9140417 15.5410411,12.0778163 C15.8873075,12.4240827 15.8873075,12.9855956 15.5410411,13.331862 Z" id="Shape"></path>
                        <path d="M9.72938195,6.13981673 C9.19126535,6.13981673 8.68590368,6.35038409 8.30688243,6.72940534 C7.92786118,7.10842659 7.71729382,7.61378826 7.71729382,8.15190485 C7.71729382,8.69002145 7.92786118,9.19538312 8.30688243,9.57440437 C8.68590368,9.95342562 9.19126535,10.163993 9.72938195,10.163993 C10.2674985,10.163993 10.7728602,9.95342562 11.1518815,9.57440437 C11.5309027,9.19538312 11.7414701,8.69002145 11.7414701,8.15190485 C11.7414701,7.61378826 11.5309027,7.10842659 11.1518815,6.72940534 C10.7681809,6.35038409 10.2674985,6.13981673 9.72938195,6.13981673 Z M10.3564048,8.77892767 C10.1879509,8.94738156 9.96802496,9.03628778 9.72938195,9.03628778 C9.49073894,9.03628778 9.27081302,8.94270228 9.10235913,8.77892767 C8.93390524,8.61047378 8.84499903,8.39054787 8.84499903,8.15190485 C8.84499903,7.91326184 8.93858452,7.69333593 9.10235913,7.52488204 C9.27081302,7.35642815 9.49073894,7.26752193 9.72938195,7.26752193 C9.96802496,7.26752193 10.1879509,7.36110743 10.3564048,7.52488204 C10.5248586,7.69333593 10.6137649,7.91326184 10.6137649,8.15190485 C10.6137649,8.38586859 10.5248586,8.61047378 10.3564048,8.77892767 Z" id="Shape"></path>
                    </g>
                </g>
            </g>
        </g>
    </g>
</svg>