<?xml version="1.0" encoding="UTF-8"?>
<svg width="22px" height="22px" viewBox="0 0 22 22" version="1.1" xmlns="http://www.w3.org/2000/svg" xmlns:xlink="http://www.w3.org/1999/xlink">
    <!-- Generator: Sketch 57.1 (83088) - https://sketch.com -->
    <title>right-turn</title>
    <desc>Created with Sketch.</desc>
    <g id="New-UX" stroke="none" stroke-width="1" fill="none" fill-rule="evenodd">
        <g id="customer-master-filters-2-copy-2" transform="translate(-870.000000, -198.000000)" fill="#666666" fill-rule="nonzero">
            <g id="Group-6" transform="translate(861.000000, 189.000000)">
                <g id="Group-7">
                    <g id="right-turn" transform="translate(9.565217, 9.565217)">
                        <path d="M14.6921739,6.44521739 C10.48,5.12347826 10.6365217,5.1826087 10.4347826,5.2173913 C10.2057978,5.25200038 10.0090498,5.39829148 9.90997117,5.60761245 C9.81089256,5.81693343 9.82247617,6.06183478 9.94086957,6.26086957 L10.3513043,6.99130435 L9.00869565,7.47826087 C7.3611817,8.07720303 6.2634785,9.64177743 6.26086957,11.3947826 L6.26086957,14.6086957 C6.26086957,14.9928937 6.57232365,15.3043478 6.95652174,15.3043478 L8.34782609,15.3043478 C8.73202417,15.3043478 9.04347826,14.9928937 9.04347826,14.6086957 L9.04347826,11.6417391 C9.04378981,10.9095129 9.5027001,10.2559134 10.1913043,10.0069565 L11.3043478,9.60347826 L11.453913,10.4104348 C11.500077,10.694005 11.7158167,10.9200242 11.9969327,10.9793281 C12.2780487,11.038632 12.5667025,10.9190192 12.7234783,10.6782609 L14.9773913,7.23478261 C15.0662689,7.09630689 15.0856062,6.92434473 15.029703,6.76958824 C14.9737998,6.61483172 14.8490299,6.49492595 14.6921739,6.44521739 Z M12.1426087,10.3026087 C12.1426087,10.2713043 12.0904348,10.0208696 11.9130435,9.07130435 C11.8942798,8.96902946 11.8307431,8.88051329 11.7398466,8.83001523 C11.6489501,8.77951722 11.5402283,8.77233416 11.4434783,8.81043478 L9.95478261,9.35304348 C8.99073666,9.7015831 8.34826223,10.6166224 8.34782609,11.6417391 L8.34782609,14.6086957 L6.95652174,14.6086957 L6.95652174,11.3947826 C6.95661437,9.93122438 7.8728583,8.62429075 9.24869565,8.12521739 L10.9878261,7.49913043 C11.083832,7.46423231 11.1596438,7.38889544 11.1951444,7.29311068 C11.230645,7.19732591 11.2222453,7.09077777 11.1721739,7.00173913 L10.5495652,5.91304348 L14.2608696,7.04347826 L12.1426087,10.3026087 Z" id="Shape"></path>
                        <path d="M11.1721739,0.306086957 C10.7602348,-0.0896805183 10.1093304,-0.0896805183 9.6973913,0.306086957 L0.306086957,9.6973913 C-0.100804699,10.1047896 -0.100804699,10.7647756 0.306086957,11.1721739 C10.2086957,21.0713043 9.6626087,20.5634783 9.6973913,20.5634783 C10.1047896,20.9703699 10.7647756,20.9703699 11.1721739,20.5634783 L20.5634783,11.1721739 C20.9703699,10.7647756 20.9703699,10.1047896 20.5634783,9.6973913 L11.1721739,0.306086957 Z M20.0730435,10.6817391 L10.6817391,20.0730435 C10.616429,20.1388914 10.5275261,20.1759298 10.4347826,20.1759298 C10.3420391,20.1759298 10.2531362,20.1388914 10.1878261,20.0730435 C10.1530435,20.0730435 10.7130435,20.5843478 0.796521739,10.6817391 C0.730673861,10.616429 0.693635367,10.5275261 0.693635367,10.4347826 C0.693635367,10.3420391 0.730673861,10.2531362 0.796521739,10.1878261 L10.1878261,0.796521739 C10.2531362,0.730673861 10.3420391,0.693635367 10.4347826,0.693635367 C10.5275261,0.693635367 10.616429,0.730673861 10.6817391,0.796521739 L20.0730435,10.1878261 C20.1388914,10.2531362 20.1759298,10.3420391 20.1759298,10.4347826 C20.1759298,10.5275261 20.1388914,10.616429 20.0730435,10.6817391 Z" id="Shape"></path>
                    </g>
                </g>
            </g>
        </g>
    </g>
</svg>